<svg width="128" height="128" viewBox="0 0 128 128" fill="none" xmlns="http://www.w3.org/2000/svg">
  <rect width="128" height="128" rx="30" fill="#F7FAF8"/>
  <circle cx="64" cy="64" r="45" fill="url(#plateGradient)" stroke="#DFF4E7" stroke-width="8"/>
  <circle cx="64" cy="64" r="31" fill="#FFFFFF" stroke="#D8EFE1" stroke-width="3"/>
  <path d="M42 71C45.5 58.5 54.5 49 66.5 44C70 55.5 67.5 66 59.5 75.5C53 83.5 43.5 86.5 34 85C34.5 79.5 37 74.5 42 71Z" fill="url(#leafGradient)"/>
  <path d="M52 76C60 66.5 65.5 55.5 66.5 44" stroke="#F7FAF8" stroke-width="4" stroke-linecap="round"/>
  <path d="M76 34V58" stroke="#2F7D5B" stroke-width="5" stroke-linecap="round"/>
  <path d="M86 34V58" stroke="#2F7D5B" stroke-width="5" stroke-linecap="round"/>
  <path d="M96 34V58" stroke="#2F7D5B" stroke-width="5" stroke-linecap="round"/>
  <path d="M76 58C76 64 80.5 68 86 68C91.5 68 96 64 96 58" stroke="#2F7D5B" stroke-width="5" stroke-linecap="round"/>
  <path d="M86 68V95" stroke="#2F7D5B" stroke-width="6" stroke-linecap="round"/>
  <path d="M42 96C50 91 62 91 72 96" stroke="#EF7D63" stroke-width="6" stroke-linecap="round"/>
  <path d="M47 90C55 86 65 86 73 90" stroke="#F5BD4F" stroke-width="5" stroke-linecap="round"/>
  <defs>
    <linearGradient id="plateGradient" x1="27" y1="21" x2="102" y2="107" gradientUnits="userSpaceOnUse">
      <stop stop-color="#FFFFFF"/>
      <stop offset="1" stop-color="#E9F7EE"/>
    </linearGradient>
    <linearGradient id="leafGradient" x1="37" y1="82" x2="67" y2="45" gradientUnits="userSpaceOnUse">
      <stop stop-color="#2F7D5B"/>
      <stop offset="1" stop-color="#65B982"/>
    </linearGradient>
  </defs>
</svg>
